# xmcd
#
# Track frame offsets:
#	150
#	14581
#	32477
#	48598
#	60150
#	71486
#	86269
#	102298
#	112944
#	125936
#	136059
# Disc length: 2471 seconds
# Revision: 3
# Processed by: cddbd v1.5.2PL0 Copyright (c) Steve Scherf et al.
#
# Submitted via: libkcddb 0.31
#
DISCID=8a09a50b
DTITLE=Doors - Love Me Two Times
DYEAR=1900
DGENRE=Rock
TTITLE0=Touch Me
TTITLE1=Wait For The Sun
TTITLE2=Soul Kitchen
TTITLE3=The Crystal Ship
TTITLE4=Twentieth Century Fox
TTITLE5=Love Her Madly
TTITLE6=Back Door Man
TTITLE7=I Look At You
TTITLE8=End Of The Night
TTITLE9=Take It As It Comes
TTITLE10=When The Music's over
EXTD=
EXTT0=
EXTT1=
EXTT2=
EXTT3=
EXTT4=
EXTT5=
EXTT6=
EXTT7=
EXTT8=
EXTT9=
EXTT10=
PLAYORDER=
